<svg xmlns="http://www.w3.org/2000/svg" width="1920" height="1080"><path d="M1051,625L1209,581L1225,450Z" fill="rgb(141,117,203)" stroke="rgb(141,117,203)" stroke-width="1.51"/><path d="M1225,450L1019,325L1051,625Z" fill="rgb(139,115,202)" stroke="rgb(139,115,202)" stroke-width="1.51"/><path d="M1155,118L1036,172L1019,325Z" fill="rgb(133,109,199)" stroke="rgb(133,109,199)" stroke-width="1.51"/><path d="M1225,450L1155,118L1019,325Z" fill="rgb(136,111,200)" stroke="rgb(136,111,200)" stroke-width="1.51"/><path d="M1019,325L740,335L1051,625Z" fill="rgb(136,112,200)" stroke="rgb(136,112,200)" stroke-width="1.51"/><path d="M751,142L740,335L1019,325Z" fill="rgb(132,107,198)" stroke="rgb(132,107,198)" stroke-width="1.51"/><path d="M1225,450L1428,250L1155,118Z" fill="rgb(137,113,201)" stroke="rgb(137,113,201)" stroke-width="1.51"/><path d="M1531,479L1428,250L1225,450Z" fill="rgb(141,117,203)" stroke="rgb(141,117,203)" stroke-width="1.51"/><path d="M740,335L701,628L1051,625Z" fill="rgb(137,113,201)" stroke="rgb(137,113,201)" stroke-width="1.51"/><path d="M1209,581L1531,479L1225,450Z" fill="rgb(142,118,204)" stroke="rgb(142,118,204)" stroke-width="1.51"/><path d="M1209,581L1464,748L1531,479Z" fill="rgb(145,122,205)" stroke="rgb(145,122,205)" stroke-width="1.51"/><path d="M1051,625L1266,901L1209,581Z" fill="rgb(144,121,205)" stroke="rgb(144,121,205)" stroke-width="1.51"/><path d="M1043,972L1266,901L1051,625Z" fill="rgb(146,123,206)" stroke="rgb(146,123,206)" stroke-width="1.51"/><path d="M1266,901L1464,748L1209,581Z" fill="rgb(146,124,206)" stroke="rgb(146,124,206)" stroke-width="1.51"/><path d="M746,847L1043,972L1051,625Z" fill="rgb(144,120,204)" stroke="rgb(144,120,204)" stroke-width="1.51"/><path d="M1266,901L1456,834L1464,748Z" fill="rgb(149,127,208)" stroke="rgb(149,127,208)" stroke-width="1.51"/><path d="M1464,748L1718,574L1531,479Z" fill="rgb(147,123,206)" stroke="rgb(147,123,206)" stroke-width="1.51"/><path d="M701,628L746,847L1051,625Z" fill="rgb(141,117,203)" stroke="rgb(141,117,203)" stroke-width="1.51"/><path d="M1036,172L751,142L1019,325Z" fill="rgb(132,107,198)" stroke="rgb(132,107,198)" stroke-width="1.51"/><path d="M740,335L418,379L701,628Z" fill="rgb(133,108,198)" stroke="rgb(133,108,198)" stroke-width="1.51"/><path d="M788,-98L751,142L1036,172Z" fill="rgb(128,103,196)" stroke="rgb(128,103,196)" stroke-width="1.51"/><path d="M1428,250L1282,-74L1155,118Z" fill="rgb(134,109,199)" stroke="rgb(134,109,199)" stroke-width="1.51"/><path d="M901,-167L788,-98L1036,172Z" fill="rgb(127,102,196)" stroke="rgb(127,102,196)" stroke-width="1.51"/><path d="M746,847L898,1071L1043,972Z" fill="rgb(146,123,206)" stroke="rgb(146,123,206)" stroke-width="1.51"/><path d="M1043,972L1163,1114L1266,901Z" fill="rgb(150,127,208)" stroke="rgb(150,127,208)" stroke-width="1.51"/><path d="M1490,1244L1702,1007L1456,834Z" fill="rgb(154,133,211)" stroke="rgb(154,133,211)" stroke-width="1.51"/><path d="M898,1071L1163,1114L1043,972Z" fill="rgb(149,127,207)" stroke="rgb(149,127,207)" stroke-width="1.51"/><path d="M1702,1007L1718,574L1464,748Z" fill="rgb(150,128,209)" stroke="rgb(150,128,209)" stroke-width="1.51"/><path d="M1531,479L1724,327L1428,250Z" fill="rgb(141,118,204)" stroke="rgb(141,118,204)" stroke-width="1.51"/><path d="M1428,250L1550,-23L1282,-74Z" fill="rgb(134,109,199)" stroke="rgb(134,109,199)" stroke-width="1.51"/><path d="M1718,574L1724,327L1531,479Z" fill="rgb(144,121,205)" stroke="rgb(144,121,205)" stroke-width="1.51"/><path d="M901,-167L1036,172L1155,118Z" fill="rgb(130,105,197)" stroke="rgb(130,105,197)" stroke-width="1.51"/><path d="M468,-92L485,197L751,142Z" fill="rgb(125,100,195)" stroke="rgb(125,100,195)" stroke-width="1.51"/><path d="M751,142L485,197L740,335Z" fill="rgb(129,104,197)" stroke="rgb(129,104,197)" stroke-width="1.51"/><path d="M701,628L440,717L746,847Z" fill="rgb(139,115,202)" stroke="rgb(139,115,202)" stroke-width="1.51"/><path d="M1735,172L1550,-23L1428,250Z" fill="rgb(137,113,201)" stroke="rgb(137,113,201)" stroke-width="1.51"/><path d="M485,197L418,379L740,335Z" fill="rgb(129,104,196)" stroke="rgb(129,104,196)" stroke-width="1.51"/><path d="M746,847L760,1166L898,1071Z" fill="rgb(146,124,206)" stroke="rgb(146,124,206)" stroke-width="1.51"/><path d="M418,379L440,717L701,628Z" fill="rgb(135,110,199)" stroke="rgb(135,110,199)" stroke-width="1.51"/><path d="M1211,-323L901,-167L1282,-74Z" fill="rgb(130,105,197)" stroke="rgb(130,105,197)" stroke-width="1.51"/><path d="M1282,-74L901,-167L1155,118Z" fill="rgb(130,105,197)" stroke="rgb(130,105,197)" stroke-width="1.51"/><path d="M1724,327L1735,172L1428,250Z" fill="rgb(140,117,203)" stroke="rgb(140,117,203)" stroke-width="1.51"/><path d="M1895,396L1735,172L1724,327Z" fill="rgb(143,120,204)" stroke="rgb(143,120,204)" stroke-width="1.51"/><path d="M957,1452L1184,1404L1163,1114Z" fill="rgb(150,128,208)" stroke="rgb(150,128,208)" stroke-width="1.51"/><path d="M544,1075L760,1166L746,847Z" fill="rgb(145,122,205)" stroke="rgb(145,122,205)" stroke-width="1.51"/><path d="M1456,834L1702,1007L1464,748Z" fill="rgb(151,129,208)" stroke="rgb(151,129,208)" stroke-width="1.51"/><path d="M1718,574L1895,396L1724,327Z" fill="rgb(145,122,205)" stroke="rgb(145,122,205)" stroke-width="1.51"/><path d="M1490,1244L1456,834L1266,901Z" fill="rgb(152,130,209)" stroke="rgb(152,130,209)" stroke-width="1.51"/><path d="M440,717L432,918L746,847Z" fill="rgb(139,116,202)" stroke="rgb(139,116,202)" stroke-width="1.51"/><path d="M274,713L432,918L440,717Z" fill="rgb(137,113,201)" stroke="rgb(137,113,201)" stroke-width="1.51"/><path d="M432,918L544,1075L746,847Z" fill="rgb(142,119,204)" stroke="rgb(142,119,204)" stroke-width="1.51"/><path d="M2049,748L1895,396L1718,574Z" fill="rgb(149,127,208)" stroke="rgb(149,127,208)" stroke-width="1.51"/><path d="M1468,-325L1211,-323L1282,-74Z" fill="rgb(132,107,198)" stroke="rgb(132,107,198)" stroke-width="1.51"/><path d="M1441,1324L1490,1244L1163,1114Z" fill="rgb(153,132,210)" stroke="rgb(153,132,210)" stroke-width="1.51"/><path d="M1163,1114L1490,1244L1266,901Z" fill="rgb(153,131,210)" stroke="rgb(153,131,210)" stroke-width="1.51"/><path d="M432,918L297,1090L544,1075Z" fill="rgb(142,119,204)" stroke="rgb(142,119,204)" stroke-width="1.51"/><path d="M418,379L274,713L440,717Z" fill="rgb(134,109,199)" stroke="rgb(134,109,199)" stroke-width="1.51"/><path d="M160,353L274,713L418,379Z" fill="rgb(130,105,197)" stroke="rgb(130,105,197)" stroke-width="1.51"/><path d="M1550,-23L1468,-325L1282,-74Z" fill="rgb(133,109,199)" stroke="rgb(133,109,199)" stroke-width="1.51"/><path d="M1735,172L1751,-57L1550,-23Z" fill="rgb(136,112,201)" stroke="rgb(136,112,201)" stroke-width="1.51"/><path d="M1956,124L1751,-57L1735,172Z" fill="rgb(139,115,202)" stroke="rgb(139,115,202)" stroke-width="1.51"/><path d="M901,-167L673,-249L788,-98Z" fill="rgb(126,100,195)" stroke="rgb(126,100,195)" stroke-width="1.51"/><path d="M788,-98L468,-92L751,142Z" fill="rgb(125,99,194)" stroke="rgb(125,99,194)" stroke-width="1.51"/><path d="M868,-364L673,-249L901,-167Z" fill="rgb(126,101,195)" stroke="rgb(126,101,195)" stroke-width="1.51"/><path d="M673,-249L468,-92L788,-98Z" fill="rgb(124,99,194)" stroke="rgb(124,99,194)" stroke-width="1.51"/><path d="M248,77L160,353L418,379Z" fill="rgb(126,100,194)" stroke="rgb(126,100,194)" stroke-width="1.51"/><path d="M1490,1244L1635,1201L1702,1007Z" fill="rgb(156,135,211)" stroke="rgb(156,135,211)" stroke-width="1.51"/><path d="M1490,1244L1678,1392L1635,1201Z" fill="rgb(156,135,211)" stroke="rgb(156,135,211)" stroke-width="1.51"/><path d="M1184,1404L1441,1324L1163,1114Z" fill="rgb(152,130,209)" stroke="rgb(152,130,209)" stroke-width="1.51"/><path d="M1211,-323L868,-364L901,-167Z" fill="rgb(128,103,196)" stroke="rgb(128,103,196)" stroke-width="1.51"/><path d="M1752,-286L1468,-325L1550,-23Z" fill="rgb(135,111,200)" stroke="rgb(135,111,200)" stroke-width="1.51"/><path d="M1211,-323L1468,-325L868,-364Z" fill="rgb(130,105,197)" stroke="rgb(130,105,197)" stroke-width="1.51"/><path d="M957,1452L1163,1114L898,1071Z" fill="rgb(149,127,208)" stroke="rgb(149,127,208)" stroke-width="1.51"/><path d="M957,1452L898,1071L760,1166Z" fill="rgb(148,126,207)" stroke="rgb(148,126,207)" stroke-width="1.51"/><path d="M1879,1151L1912,909L1702,1007Z" fill="rgb(157,137,212)" stroke="rgb(157,137,212)" stroke-width="1.51"/><path d="M1702,1007L1912,909L1718,574Z" fill="rgb(153,131,210)" stroke="rgb(153,131,210)" stroke-width="1.51"/><path d="M1895,396L1956,124L1735,172Z" fill="rgb(142,119,204)" stroke="rgb(142,119,204)" stroke-width="1.51"/><path d="M1751,-57L1752,-286L1550,-23Z" fill="rgb(136,112,200)" stroke="rgb(136,112,200)" stroke-width="1.51"/><path d="M2293,437L1956,124L1895,396Z" fill="rgb(145,122,205)" stroke="rgb(145,122,205)" stroke-width="1.51"/><path d="M248,77L418,379L485,197Z" fill="rgb(126,101,195)" stroke="rgb(126,101,195)" stroke-width="1.51"/><path d="M468,-92L248,77L485,197Z" fill="rgb(123,97,193)" stroke="rgb(123,97,193)" stroke-width="1.51"/><path d="M639,1490L957,1452L760,1166Z" fill="rgb(147,124,206)" stroke="rgb(147,124,206)" stroke-width="1.51"/><path d="M274,713L235,933L432,918Z" fill="rgb(137,114,201)" stroke="rgb(137,114,201)" stroke-width="1.51"/><path d="M544,1075L639,1490L760,1166Z" fill="rgb(146,123,206)" stroke="rgb(146,123,206)" stroke-width="1.51"/><path d="M51,756L235,933L274,713Z" fill="rgb(135,111,200)" stroke="rgb(135,111,200)" stroke-width="1.51"/><path d="M1912,909L2049,748L1718,574Z" fill="rgb(152,131,210)" stroke="rgb(152,131,210)" stroke-width="1.51"/><path d="M235,933L297,1090L432,918Z" fill="rgb(140,116,203)" stroke="rgb(140,116,203)" stroke-width="1.51"/><path d="M1635,1201L1879,1151L1702,1007Z" fill="rgb(157,136,212)" stroke="rgb(157,136,212)" stroke-width="1.51"/><path d="M1912,909L2217,950L2049,748Z" fill="rgb(155,134,211)" stroke="rgb(155,134,211)" stroke-width="1.51"/><path d="M1678,1392L1879,1151L1635,1201Z" fill="rgb(157,136,212)" stroke="rgb(157,136,212)" stroke-width="1.51"/><path d="M2003,-81L1752,-286L1751,-57Z" fill="rgb(137,114,201)" stroke="rgb(137,114,201)" stroke-width="1.51"/><path d="M2293,437L2116,639L2217,950Z" fill="rgb(152,130,209)" stroke="rgb(152,130,209)" stroke-width="1.51"/><path d="M2049,748L2116,639L1895,396Z" fill="rgb(150,128,208)" stroke="rgb(150,128,208)" stroke-width="1.51"/><path d="M497,-353L468,-92L673,-249Z" fill="rgb(123,97,194)" stroke="rgb(123,97,194)" stroke-width="1.51"/><path d="M176,-270L222,-46L468,-92Z" fill="rgb(121,94,192)" stroke="rgb(121,94,192)" stroke-width="1.51"/><path d="M468,-92L222,-46L248,77Z" fill="rgb(121,95,192)" stroke="rgb(121,95,192)" stroke-width="1.51"/><path d="M-63,178L-29,447L160,353Z" fill="rgb(124,98,194)" stroke="rgb(124,98,194)" stroke-width="1.51"/><path d="M868,-364L497,-353L673,-249Z" fill="rgb(125,99,194)" stroke="rgb(125,99,194)" stroke-width="1.51"/><path d="M957,1452L1678,1392L1184,1404Z" fill="rgb(152,131,209)" stroke="rgb(152,131,209)" stroke-width="1.51"/><path d="M1184,1404L1678,1392L1441,1324Z" fill="rgb(154,133,210)" stroke="rgb(154,133,210)" stroke-width="1.51"/><path d="M1441,1324L1678,1392L1490,1244Z" fill="rgb(155,134,211)" stroke="rgb(155,134,211)" stroke-width="1.51"/><path d="M1956,124L2003,-81L1751,-57Z" fill="rgb(138,115,202)" stroke="rgb(138,115,202)" stroke-width="1.51"/><path d="M2213,3L2003,-81L1956,124Z" fill="rgb(139,115,202)" stroke="rgb(139,115,202)" stroke-width="1.51"/><path d="M235,933L48,885L297,1090Z" fill="rgb(138,115,202)" stroke="rgb(138,115,202)" stroke-width="1.51"/><path d="M-29,447L51,756L274,713Z" fill="rgb(131,106,198)" stroke="rgb(131,106,198)" stroke-width="1.51"/><path d="M-29,447L274,713L160,353Z" fill="rgb(129,103,197)" stroke="rgb(129,103,197)" stroke-width="1.51"/><path d="M439,1507L639,1490L544,1075Z" fill="rgb(144,121,205)" stroke="rgb(144,121,205)" stroke-width="1.51"/><path d="M957,1452L2255,1483L1678,1392Z" fill="rgb(156,135,212)" stroke="rgb(156,135,212)" stroke-width="1.51"/><path d="M51,756L48,885L235,933Z" fill="rgb(136,111,200)" stroke="rgb(136,111,200)" stroke-width="1.51"/><path d="M297,1090L251,1335L544,1075Z" fill="rgb(142,119,204)" stroke="rgb(142,119,204)" stroke-width="1.51"/><path d="M-63,178L160,353L248,77Z" fill="rgb(123,97,193)" stroke="rgb(123,97,193)" stroke-width="1.51"/><path d="M51,756L-206,928L48,885Z" fill="rgb(134,110,199)" stroke="rgb(134,110,199)" stroke-width="1.51"/><path d="M-105,1164L251,1335L297,1090Z" fill="rgb(140,117,203)" stroke="rgb(140,117,203)" stroke-width="1.51"/><path d="M2217,950L2116,639L2049,748Z" fill="rgb(154,132,210)" stroke="rgb(154,132,210)" stroke-width="1.51"/><path d="M2116,639L2293,437L1895,396Z" fill="rgb(148,126,207)" stroke="rgb(148,126,207)" stroke-width="1.51"/><path d="M1879,1151L2217,950L1912,909Z" fill="rgb(158,137,212)" stroke="rgb(158,137,212)" stroke-width="1.51"/><path d="M2244,1077L2217,950L1879,1151Z" fill="rgb(159,138,213)" stroke="rgb(159,138,213)" stroke-width="1.51"/><path d="M251,1335L439,1507L544,1075Z" fill="rgb(143,120,204)" stroke="rgb(143,120,204)" stroke-width="1.51"/><path d="M497,-353L176,-270L468,-92Z" fill="rgb(122,95,193)" stroke="rgb(122,95,193)" stroke-width="1.51"/><path d="M222,-46L-63,178L248,77Z" fill="rgb(120,94,191)" stroke="rgb(120,94,191)" stroke-width="1.51"/><path d="M-92,-124L-63,178L222,-46Z" fill="rgb(118,91,190)" stroke="rgb(118,91,190)" stroke-width="1.51"/><path d="M2266,110L2213,3L1956,124Z" fill="rgb(140,116,203)" stroke="rgb(140,116,203)" stroke-width="1.51"/><path d="M2003,-81L2046,-330L1752,-286Z" fill="rgb(138,115,202)" stroke="rgb(138,115,202)" stroke-width="1.51"/><path d="M2293,437L2266,110L1956,124Z" fill="rgb(143,120,204)" stroke="rgb(143,120,204)" stroke-width="1.51"/><path d="M1678,1392L2023,1336L1879,1151Z" fill="rgb(159,138,213)" stroke="rgb(159,138,213)" stroke-width="1.51"/><path d="M1752,-286L2046,-330L1468,-325Z" fill="rgb(137,113,201)" stroke="rgb(137,113,201)" stroke-width="1.51"/><path d="M1468,-325L2046,-330L868,-364Z" fill="rgb(133,109,199)" stroke="rgb(133,109,199)" stroke-width="1.51"/><path d="M2285,-294L2046,-330L2003,-81Z" fill="rgb(138,115,202)" stroke="rgb(138,115,202)" stroke-width="1.51"/><path d="M2217,950L2244,1077L2293,437Z" fill="rgb(154,133,211)" stroke="rgb(154,133,211)" stroke-width="1.51"/><path d="M2023,1336L2244,1077L1879,1151Z" fill="rgb(159,139,213)" stroke="rgb(159,139,213)" stroke-width="1.51"/><path d="M176,-270L-92,-124L222,-46Z" fill="rgb(118,93,191)" stroke="rgb(118,93,191)" stroke-width="1.51"/><path d="M48,885L-105,1164L297,1090Z" fill="rgb(139,115,202)" stroke="rgb(139,115,202)" stroke-width="1.51"/><path d="M251,1335L-123,1364L439,1507Z" fill="rgb(140,117,203)" stroke="rgb(140,117,203)" stroke-width="1.51"/><path d="M-299,714L-206,928L51,756Z" fill="rgb(133,108,199)" stroke="rgb(133,108,199)" stroke-width="1.51"/><path d="M-299,714L51,756L-29,447Z" fill="rgb(130,105,197)" stroke="rgb(130,105,197)" stroke-width="1.51"/><path d="M-299,714L-29,447L-329,464Z" fill="rgb(128,103,196)" stroke="rgb(128,103,196)" stroke-width="1.51"/><path d="M-206,928L-105,1164L48,885Z" fill="rgb(137,113,201)" stroke="rgb(137,113,201)" stroke-width="1.51"/><path d="M-341,1100L-123,1364L-105,1164Z" fill="rgb(138,115,202)" stroke="rgb(138,115,202)" stroke-width="1.51"/><path d="M-329,464L-29,447L-311,193Z" fill="rgb(125,99,194)" stroke="rgb(125,99,194)" stroke-width="1.51"/><path d="M2293,437L2285,-294L2266,110Z" fill="rgb(140,117,203)" stroke="rgb(140,117,203)" stroke-width="1.51"/><path d="M2266,110L2285,-294L2213,3Z" fill="rgb(138,115,202)" stroke="rgb(138,115,202)" stroke-width="1.51"/><path d="M2213,3L2285,-294L2003,-81Z" fill="rgb(138,115,202)" stroke="rgb(138,115,202)" stroke-width="1.51"/><path d="M-311,193L-29,447L-63,178Z" fill="rgb(123,97,193)" stroke="rgb(123,97,193)" stroke-width="1.51"/><path d="M-280,-79L-311,193L-63,178Z" fill="rgb(119,93,191)" stroke="rgb(119,93,191)" stroke-width="1.51"/><path d="M176,-270L-101,-290L-92,-124Z" fill="rgb(117,91,190)" stroke="rgb(117,91,190)" stroke-width="1.51"/><path d="M-302,-403L-101,-290L176,-270Z" fill="rgb(117,91,190)" stroke="rgb(117,91,190)" stroke-width="1.51"/><path d="M-280,-79L-63,178L-92,-124Z" fill="rgb(117,91,190)" stroke="rgb(117,91,190)" stroke-width="1.51"/><path d="M-341,1100L-105,1164L-206,928Z" fill="rgb(138,114,202)" stroke="rgb(138,114,202)" stroke-width="1.51"/><path d="M-105,1164L-123,1364L251,1335Z" fill="rgb(138,115,202)" stroke="rgb(138,115,202)" stroke-width="1.51"/><path d="M-101,-290L-280,-79L-92,-124Z" fill="rgb(117,91,190)" stroke="rgb(117,91,190)" stroke-width="1.51"/><path d="M2023,1336L2255,1483L2244,1077Z" fill="rgb(159,139,213)" stroke="rgb(159,139,213)" stroke-width="1.51"/><path d="M2244,1077L2255,1483L2293,437Z" fill="rgb(158,137,212)" stroke="rgb(158,137,212)" stroke-width="1.51"/><path d="M1678,1392L2255,1483L2023,1336Z" fill="rgb(159,139,213)" stroke="rgb(159,139,213)" stroke-width="1.51"/><path d="M639,1490L2255,1483L957,1452Z" fill="rgb(152,131,209)" stroke="rgb(152,131,209)" stroke-width="1.51"/><path d="M439,1507L2255,1483L639,1490Z" fill="rgb(151,129,208)" stroke="rgb(151,129,208)" stroke-width="1.51"/><path d="M-299,714L-341,1100L-206,928Z" fill="rgb(135,111,200)" stroke="rgb(135,111,200)" stroke-width="1.51"/><path d="M-329,464L-341,1100L-299,714Z" fill="rgb(132,108,198)" stroke="rgb(132,108,198)" stroke-width="1.51"/><path d="M2046,-330L-302,-403L868,-364Z" fill="rgb(127,102,195)" stroke="rgb(127,102,195)" stroke-width="1.51"/><path d="M868,-364L-302,-403L497,-353Z" fill="rgb(121,95,192)" stroke="rgb(121,95,192)" stroke-width="1.51"/><path d="M497,-353L-302,-403L176,-270Z" fill="rgb(119,92,191)" stroke="rgb(119,92,191)" stroke-width="1.51"/><path d="M-101,-290L-302,-403L-280,-79Z" fill="rgb(117,91,190)" stroke="rgb(117,91,190)" stroke-width="1.51"/><path d="M-280,-79L-302,-403L-311,193Z" fill="rgb(117,91,190)" stroke="rgb(117,91,190)" stroke-width="1.51"/><path d="M-311,193L-302,-403L-329,464Z" fill="rgb(119,93,191)" stroke="rgb(119,93,191)" stroke-width="1.51"/><path d="M-341,1100L-274,1504L-123,1364Z" fill="rgb(138,115,202)" stroke="rgb(138,115,202)" stroke-width="1.51"/><path d="M-123,1364L-274,1504L439,1507Z" fill="rgb(138,115,202)" stroke="rgb(138,115,202)" stroke-width="1.51"/></svg>